External Loads File
version=1
nRows=78
nColumns=13
Range=5.000000e-03-10 seconds
endheader
time 	forceRightX 	forceRightY 	forceRightZ 	pointRightX 	pointRightY 	pointRightZ 	forceLeftX 	forceLeftY 	forceLeftZ 	pointLeftX 	pointLeftY 	pointLeftZ 		
0.005000 22.630917 132.698565 -0.000000 0.401411 0.366058 -0.107643 44.592445 165.150676 -0.000000 0.089919 0.271638 -0.344786
0.010000 22.402355 133.098007 -0.000000 0.401385 0.366313 -0.107650 44.920757 165.228380 -0.000000 0.089960 0.271456 -0.344724
0.015000 22.081891 133.479222 -0.000000 0.401373 0.366551 -0.107676 45.481174 165.425838 -0.000000 0.090000 0.271246 -0.344744
0.020000 21.556987 133.856989 -0.000000 0.401353 0.366733 -0.107641 46.271847 165.841749 -0.000000 0.090038 0.270706 -0.344754
0.025000 21.080200 134.198208 -0.000000 0.401390 0.367201 -0.107656 47.584583 166.415214 -0.000000 0.090065 0.270710 -0.344926
0.030000 20.596338 134.533818 -0.000000 0.401367 0.367461 -0.107641 49.159125 167.151921 -0.000000 0.090088 0.270537 -0.344997
0.035000 20.162254 134.883785 -0.000000 0.401353 0.367714 -0.107618 50.757750 167.978735 -0.000000 0.090115 0.270357 -0.345030
0.040000 19.812743 135.275160 -0.000000 0.401307 0.367967 -0.107599 52.085709 168.807457 -0.000000 0.090145 0.270139 -0.345062
0.045000 19.640148 135.726128 -0.000000 0.401275 0.368218 -0.107601 52.983718 169.539997 -0.000000 0.090170 0.269962 -0.345042
0.050000 19.658528 136.252086 -0.000000 0.401225 0.368484 -0.107597 53.347126 170.142242 -0.000000 0.090182 0.269797 -0.345043
0.055000 19.865801 136.844357 -0.000000 0.401173 0.368736 -0.107593 53.244699 170.619323 -0.000000 0.090193 0.269627 -0.345032
0.060000 20.207764 137.481468 -0.000000 0.401111 0.368987 -0.107633 52.831808 171.020434 -0.000000 0.090198 0.269436 -0.345033
0.065000 20.649622 138.134448 -0.000000 0.401038 0.369196 -0.107649 52.335265 171.395908 -0.000000 0.090213 0.269235 -0.345028
0.070000 21.100314 138.785269 -0.000000 0.400960 0.369428 -0.107647 51.859161 171.804575 -0.000000 0.090222 0.268982 -0.345003
0.075000 21.518700 139.412908 -0.000000 0.400864 0.369722 -0.107631 51.477460 172.262949 -0.000000 0.090238 0.268721 -0.345000
0.080000 21.886185 140.003523 -0.000000 0.400780 0.370033 -0.107628 51.210676 172.763867 -0.000000 0.090287 0.268416 -0.345017
0.085000 22.259127 140.543903 -0.000000 0.400691 0.370304 -0.107633 51.115864 173.266370 -0.000000 0.090340 0.268155 -0.345034
0.090000 22.594707 141.038602 -0.000000 0.400597 0.370583 -0.107640 51.106013 173.762249 -0.000000 0.090402 0.267912 -0.345056
0.095000 22.859615 141.488340 -0.000000 0.400495 0.370884 -0.107659 51.115693 174.242883 -0.000000 0.090455 0.267674 -0.345065
0.100000 23.082222 141.893744 -0.000000 0.400402 0.371109 -0.107644 51.174806 174.698211 -0.000000 0.090499 0.267447 -0.345028
0.105000 23.201211 142.294012 -0.000000 0.400298 0.371377 -0.107716 51.225728 175.190734 -0.000000 0.090563 0.267177 -0.345028
0.110000 23.292949 142.729688 -0.000000 0.400198 0.371624 -0.107689 51.411238 175.770859 -0.000000 0.090614 0.266866 -0.345015
0.115000 23.440925 143.249049 -0.000000 0.400124 0.371870 -0.107698 51.891406 176.490130 -0.000000 0.090677 0.266613 -0.345051
0.120000 23.618464 143.907226 -0.000000 0.400035 0.372160 -0.107704 52.644775 177.402802 -0.000000 0.090738 0.266340 -0.345037
0.125000 23.878921 144.722026 -0.000000 0.399943 0.372405 -0.107693 53.684730 178.484224 -0.000000 0.090776 0.266080 -0.345044
0.130000 24.213864 145.695080 -0.000000 0.399856 0.372627 -0.107663 54.921278 179.700817 -0.000000 0.090802 0.265907 -0.345048
0.135000 24.539600 146.818131 -0.000000 0.399778 0.372851 -0.107667 56.171888 181.037007 -0.000000 0.090802 0.265739 -0.345067
0.140000 24.825793 148.060727 -0.000000 0.399708 0.373062 -0.107669 57.321510 182.455085 -0.000000 0.090809 0.265594 -0.345081
0.145000 25.056615 149.386320 -0.000000 0.399650 0.373235 -0.107684 58.290230 183.915105 -0.000000 0.090799 0.265489 -0.345110
0.150000 25.147568 150.769367 -0.000000 0.399596 0.373429 -0.107674 58.968067 185.418951 -0.000000 0.090782 0.265371 -0.345134
0.155000 25.112619 152.175203 -0.000000 0.399559 0.373591 -0.107683 59.443473 186.962714 -0.000000 0.090744 0.265263 -0.345119
0.160000 24.944529 153.598227 -0.000000 0.399524 0.373746 -0.107703 59.835601 188.592900 -0.000000 0.090690 0.265187 -0.345107
0.165000 24.642770 155.062749 -0.000000 0.399508 0.373912 -0.107718 60.280931 190.382088 -0.000000 0.090661 0.265117 -0.345106
0.170000 24.240040 156.601623 -0.000000 0.399488 0.374100 -0.107725 60.927046 192.393209 -0.000000 0.090619 0.265056 -0.345110
0.175000 23.793132 158.238696 -0.000000 0.399477 0.374246 -0.107742 61.903201 194.662439 -0.000000 0.090567 0.264982 -0.345110
0.180000 23.308204 159.998229 -0.000000 0.399432 0.374407 -0.107755 63.214082 197.220361 -0.000000 0.090517 0.264914 -0.345096
0.185000 22.850162 161.898891 -0.000000 0.399404 0.374531 -0.107760 64.856582 200.052040 -0.000000 0.090449 0.264826 -0.345078
0.190000 22.424499 163.977993 -0.000000 0.399341 0.374688 -0.107748 66.675391 203.142604 -0.000000 0.090401 0.264725 -0.345058
0.195000 22.099134 166.264692 -0.000000 0.399264 0.374813 -0.107730 68.546821 206.424009 -0.000000 0.090376 0.264595 -0.345068
0.200000 21.891640 168.776262 -0.000000 0.399154 0.374962 -0.107706 70.283922 209.827861 -0.000000 0.090366 0.264475 -0.345098
0.205000 21.796956 171.509878 -0.000000 0.399051 0.375131 -0.107708 71.703503 213.294408 -0.000000 0.090343 0.264287 -0.345076
0.210000 21.886935 174.441607 -0.000000 0.398920 0.375278 -0.107686 72.773087 216.746929 -0.000000 0.090360 0.264095 -0.345085
0.215000 22.192131 177.541206 -0.000000 0.398771 0.375450 -0.107672 73.487929 220.140402 -0.000000 0.090362 0.263905 -0.345059
0.220000 22.695328 180.761319 -0.000000 0.398616 0.375661 -0.107650 73.878019 223.447335 -0.000000 0.090388 0.263657 -0.345055
0.225000 23.444578 184.027416 -0.000000 0.398435 0.375895 -0.107556 74.129678 226.600451 -0.000000 0.090434 0.263454 -0.345031
0.230000 24.347640 187.282841 -0.000000 0.398242 0.376145 -0.107528 74.289857 229.586560 -0.000000 0.090494 0.263198 -0.345028
0.235000 25.321425 190.481206 -0.000000 0.398069 0.376410 -0.107533 74.425482 232.399879 -0.000000 0.090588 0.262902 -0.345059
0.240000 26.277676 193.586767 -0.000000 0.397928 0.376648 -0.107514 74.608322 235.052634 -0.000000 0.090670 0.262592 -0.345072
0.245000 27.118279 196.567911 -0.000000 0.397823 0.376839 -0.107491 74.907223 237.567638 -0.000000 0.090752 0.262355 -0.345098
0.250000 27.669123 199.391468 -0.000000 0.397800 0.376991 -0.107504 75.275536 239.981404 -0.000000 0.090829 0.262146 -0.345116
0.255000 27.855967 201.987874 -0.000000 0.397825 0.377081 -0.107513 75.728997 242.260812 -0.000000 0.090866 0.262019 -0.345141
0.260000 27.613252 204.275505 -0.000000 0.397908 0.377088 -0.107510 76.232028 244.350583 -0.000000 0.090897 0.261981 -0.345145
0.265000 26.892328 206.183198 -0.000000 0.398063 0.377029 -0.107516 76.735095 246.198949 -0.000000 0.090895 0.261995 -0.345139
0.270000 25.730475 207.654890 -0.000000 0.398235 0.376909 -0.107550 77.282490 247.751276 -0.000000 0.090892 0.262133 -0.345129
0.275000 24.251393 208.654722 -0.000000 0.398465 0.376614 -0.107566 78.006814 248.955652 -0.000000 0.090841 0.262380 -0.345110
0.280000 22.514279 209.187986 -0.000000 0.398744 0.376179 -0.107562 78.938992 249.817382 -0.000000 0.090747 0.262757 -0.345061
0.285000 20.555869 209.297294 -0.000000 0.399076 0.375631 -0.107620 80.070745 250.378421 -0.000000 0.090651 0.263244 -0.345041
0.290000 18.347959 209.064709 -0.000000 0.399434 0.375039 -0.107558 81.298432 250.724377 -0.000000 0.090527 0.263751 -0.345070
0.295000 16.226761 208.564771 -0.000000 0.399822 0.374152 -0.107524 82.907353 250.800866 -0.000000 0.090365 0.264485 -0.345085
0.300000 14.062956 207.925908 -0.000000 0.400241 0.373199 -0.107438 84.566288 250.722827 -0.000000 0.090158 0.265361 -0.345029
0.305000 11.879229 207.258164 -0.000000 0.400702 0.372110 -0.107386 86.088219 250.535094 -0.000000 0.089955 0.266247 -0.345075
0.310000 9.865893 206.643002 -0.000000 0.401146 0.370951 -0.107274 87.497704 250.203418 -0.000000 0.089753 0.267424 -0.345026
0.315000 8.004390 206.142054 -0.000000 0.401618 0.369593 -0.107203 88.621150 249.787386 -0.000000 0.089532 0.268593 -0.345027
0.320000 6.429439 205.775612 -0.000000 0.402102 0.368163 -0.107192 89.535001 249.309992 -0.000000 0.089272 0.269971 -0.344962
0.325000 5.202201 205.544309 -0.000000 0.402612 0.366595 -0.107210 90.296284 248.848639 -0.000000 0.088999 0.271476 -0.344976
0.330000 4.330011 205.435780 -0.000000 0.403120 0.364951 -0.107214 90.994553 248.502052 -0.000000 0.088706 0.273118 -0.344999
0.335000 3.873253 205.424519 -0.000000 0.403615 0.363095 -0.107227 91.885140 248.315161 -0.000000 0.088379 0.274860 -0.344979
0.340000 3.768876 205.480451 -0.000000 0.404101 0.361118 -0.107285 93.133011 248.328864 -0.000000 0.088089 0.276779 -0.344992
0.345000 3.909655 205.578337 -0.000000 0.404575 0.359015 -0.107326 94.854410 248.517680 -0.000000 0.087815 0.278851 -0.344996
0.350000 4.148015 205.711541 -0.000000 0.405071 0.356739 -0.107401 97.073227 248.767716 -0.000000 0.087526 0.281045 -0.344987
0.355000 4.251917 205.909058 -0.000000 0.405570 0.354301 -0.107351 99.635826 248.895971 -0.000000 0.087277 0.283362 -0.345003
0.360000 4.009107 206.253972 -0.000000 0.406075 0.351719 -0.107462 102.326616 248.627284 -0.000000 0.087091 0.285842 -0.345017
0.365000 3.264948 206.900626 -0.000000 0.406553 0.348790 -0.107481 104.931982 247.614479 -0.000000 0.086989 0.288370 -0.345010
0.370000 1.928042 208.081001 -0.000000 0.407021 0.345792 -0.107354 107.296047 245.471774 -0.000000 0.086856 0.291335 -0.345077
0.375000 -0.175263 210.104597 -0.000000 0.407552 0.342429 -0.107302 109.174372 241.894017 -0.000000 0.086775 0.294389 -0.345087
0.380000 -3.219981 213.345831 -0.000000 0.408007 0.338935 -0.107181 110.333560 236.669544 -0.000000 0.086735 0.297629 -0.345046
0.385000 -7.052243 218.217532 -0.000000 0.408245 0.335184 -0.107326 110.921860 229.552599 -0.000000 0.086776 0.301168 -0.345056
0.390000 -11.753887 225.097232 -0.000000 0.408565 0.331233 -0.107241 110.812849 220.606089 -0.000000 0.086880 0.304775 -0.345069
